# xmcd
#
# Track frame offsets:
#	150
#	18692
#	38715
#	54903
#	71959
#	90974
#	103848
#	119907
#	141102
#	153776
#	169560
#	186703
#	203842
#	219202
#	234745
#	249512
#	264629
#	283862
#	298643
#	313974
#
# Disc length: 4397 seconds
#
# Revision: 0
# Processed by: cddbd v1.5.2PL0 Copyright (c) Steve Scherf et al.
# Submitted via: EZCDAudioConverter 7.1.0.1
#
DISCID=35112b14
DTITLE=Nu Urban Traxx Volume 251 US
DYEAR=2018
DGENRE=blues
TTITLE0=Drake ft. Michael Jackson - Don't Matter To Me
TTITLE1=The Carters - Apesh-t
TTITLE2=Childish Gambino - Summertime Magic
TTITLE3=2 Chainz ft. Drake and Quavo - Bigger Than You
TTITLE4=Brockhampton - 1999 Wildfire
TTITLE5=88rising, Higher Brothers and Blocboy JB - Let It Go
TTITLE6=Poo Bear ft. LAZR - Vegas
TTITLE7=Chris Brown - Hope You Do
TTITLE8=Teyana Taylor - Gonna Love Me
TTITLE9=Drake - In My Feelings
TTITLE10=Valee ft. Jeremih - Womp Womp
TTITLE11=GoldLink ft. Miguel - Got Friends
TTITLE12=DJ Megan Ryte ft. Tory Lanez and Hoodcelebrityy - On and On
TTITLE13=A$AP Rocky ft. Skepta - Praise The Lord (Da Shine)
TTITLE14=Belly ft. The Weeknd - What You Want
TTITLE15=Dej Loaf, Leon Bridges - Liberated
TTITLE16=Casanova ft. G-Eazy and Rich The Kid - Go Bestfriend
TTITLE17=NAV ft. Travis Scott - Champion
TTITLE18=Pusha T - If You Know You Know
TTITLE19=Tee Grizzley ft. Lil Yachty - 2 Vaults
EXTD=
EXTT0=
EXTT1=
EXTT2=
EXTT3=
EXTT4=
EXTT5=
EXTT6=
EXTT7=
EXTT8=
EXTT9=
EXTT10=
EXTT11=
EXTT12=
EXTT13=
EXTT14=
EXTT15=
EXTT16=
EXTT17=
EXTT18=
EXTT19=
PLAYORDER=
